<svg width="89" height="100" viewBox="0 0 89 100" fill="none" xmlns="http://www.w3.org/2000/svg">
<path fill-rule="evenodd" clip-rule="evenodd" d="M73.5069 55.4814C70.4897 54.7011 67.3169 54.6308 64.2686 55.2863C64.2686 55.2863 64.3152 55.2473 64.4085 55.1693C64.463 55.1224 64.5407 55.0678 64.634 55.0054C64.8673 54.8493 65.2095 54.6464 65.6839 54.4201C66.4226 54.0846 67.4802 53.7022 68.9344 53.4057C69.6576 53.2496 70.4897 53.1326 71.4229 53.0468C74.4401 47.7249 77.1852 42.1533 79.697 36.332L80.3268 34.8649L79.3548 33.6008C67.7602 18.4077 50.4732 9.81616 32.1909 5.73501C25.7053 4.29139 19.0332 3.394 12.3999 3.04285C9.67038 2.90239 6.75423 2.80875 4.01693 2.95701L1.70734 3.07406L1.46627 5.39166C0.501995 14.7947 0.284255 24.3538 0.991908 33.8271C3.37149 30.5029 5.60332 28.7315 5.60332 28.7315C-3.5884 41.9894 -0.0112481 55.973 5.92993 69.8552C6.24099 70.5809 6.3343 71.0803 6.48205 72.602C6.41207 75.8794 8.97828 77.6897 12.0344 78.2594C12.221 78.2984 18.7143 82.3561 27.8361 84.268C27.8361 84.268 21.3817 84.7206 14.5229 81.7163C16.638 85.5555 19.0332 89.2699 21.7005 92.7112C23.2169 94.662 25.0443 96.8782 26.8796 98.5481L28.4815 99.9995L30.2468 98.7588C34.516 95.7623 38.5364 92.5942 42.3158 89.2621C42.9923 90.0425 43.7388 90.7604 44.5398 91.4158C46.1495 92.7502 47.9692 93.8193 49.8978 94.6152C54.4003 96.4724 59.766 96.9094 64.3152 94.9664C66.6559 95.4658 69.0744 95.5438 71.4462 95.1927C74.1524 94.8805 76.7497 93.9519 79.0593 92.5161C80.0702 91.8919 81.1667 91.0959 81.9832 90.2297C84.9771 87.5454 87.0845 84.0495 88.0799 80.1556C90.8405 69.3167 84.3084 58.2516 73.5069 55.4814ZM45.0764 58.4545C43.9099 59.3675 42.7201 60.5692 41.7325 61.8879C41.6625 61.8333 41.6003 61.7787 41.5381 61.7241C41.5381 61.7241 41.5692 61.8177 41.6548 61.9894C40.8693 63.0429 40.2083 64.1743 39.7884 65.2902C39.734 65.4073 39.6718 65.5321 39.6173 65.6492C36.499 62.7463 34.0183 59.11 33.5673 53.0155C35.0059 55.895 37.7432 58.7354 39.7806 59.8981C36.5379 54.2251 35.4336 50.0269 35.1459 46.9757C38.1943 53.7959 43.42 54.8181 46.9583 57.1825C46.3128 57.5571 45.6829 57.9785 45.0764 58.4545ZM61.4379 49.1529C56.4144 51.3066 47.6659 51.8684 40.8849 46.0627C40.9549 46.0862 49.2834 47.9278 55.0613 44.9859C55.0613 44.9859 42.5413 45.3448 35.5892 39.1334C36.9267 38.0409 38.0387 36.6519 38.8786 34.9976C39.7184 33.3433 40.2783 31.4158 40.5116 29.2621C40.5116 29.2699 40.5038 29.2699 40.4961 29.2777C40.4961 29.2777 40.4961 29.2777 40.4961 29.2855C40.4883 29.3011 40.4727 29.3167 40.4572 29.3402C37.6655 33.7569 30.8767 40.7955 23.0225 41.5446C26.1408 42.2469 29.0414 42.1455 31.5532 41.3339C32.5719 47.3581 31.2577 55.3097 24.5622 58.6261C30.0601 52.8751 28.0149 45.298 28.0149 45.298C26.5452 54.3343 22.206 56.7221 19.9352 56.7377C17.9289 56.7533 16.3192 54.4592 15.3238 51.5719C14.0252 47.8029 13.7841 43.0116 15.0905 41.0374C16.4592 41.8411 18.6288 42.7619 21.3583 43.0272C10.0125 38.5091 7.81182 24.4943 15.456 16.4178C13.0687 20.9359 15.9848 28.0994 15.9848 28.0994C14.8261 16.9718 28.7537 7.29568 45.263 17.2372C45.263 17.2372 38.552 19.6718 37.4166 26.8353C42.7046 18.1892 53.8326 17.5961 59.976 24.229C59.9915 24.2368 59.9993 24.2446 60.0071 24.2524C60.567 24.861 61.0802 25.5243 61.5546 26.25C61.5546 26.25 61.5468 26.25 61.539 26.2422C61.5235 26.2344 61.5079 26.2266 61.4846 26.2188C58.6851 25.2122 53.7082 24.0963 48.4824 26.1486C54.1826 25.5399 62.5655 27.1864 64.5096 33.0624C64.5096 33.078 64.5174 33.0858 64.5174 33.1014C64.5174 33.1092 64.5252 33.1092 64.5174 33.117C64.533 33.1482 64.5485 33.195 64.5563 33.2262C64.5718 33.2652 64.5796 33.3043 64.5874 33.3433C66.3915 39.5157 66.9981 46.7807 61.4457 49.1529H61.4379ZM5.94548 34.3499C6.23321 33.8973 6.55982 33.4759 6.90976 33.078C9.60817 35.4346 11.1557 38.3764 11.5912 41.5992C11.9411 44.1509 11.5912 46.8743 10.5802 49.5977C10.5802 49.5977 10.2614 43.9246 7.92069 40.2727C7.92069 40.2727 8.92385 50.3624 8.23952 55.5828C7.5552 60.8033 5.83661 60.3507 4.63127 56.2149C4.26578 54.9586 3.83807 52.8907 3.5659 50.456C3.006 45.3761 3.12264 38.712 5.94548 34.3499ZM19.2898 76.2773C14.2896 72.9921 10.7824 67.7873 12.0577 63.9636C12.2366 63.433 12.5088 62.9258 12.8743 62.4576V62.5434C12.8743 62.6137 12.882 62.7073 12.8898 62.84C12.9054 62.9882 12.9365 63.1833 12.9987 63.4252C13.0142 63.4876 13.0298 63.5501 13.0531 63.6203C13.092 63.7608 13.1387 63.909 13.1931 64.0729C13.2786 64.3148 13.3875 64.5801 13.5275 64.8766C13.5741 64.9703 13.6208 65.0717 13.6752 65.181C13.7297 65.298 13.7997 65.4151 13.8696 65.5477C13.9785 65.7506 14.1029 65.9613 14.2429 66.1798C15.3705 67.9746 17.4157 70.3858 21.1328 73.3043C21.1328 73.3043 12.7732 61.3417 17.6723 61.1154C17.9756 61.1466 18.2244 61.1622 18.4733 61.1856C18.4888 61.1856 18.5044 61.1856 18.5199 61.1856C19.5775 61.2949 20.604 61.5914 25.1921 63.9714C29.0725 65.9925 33.9639 69.3324 37.6032 71.9855C37.3777 73.3121 37.2611 74.6386 37.2611 75.9652C37.2611 76.5349 37.2922 77.1045 37.3311 77.6663C37.0978 77.5961 36.8645 77.5259 36.6312 77.4478C35.8147 77.1981 34.9826 76.9172 34.1661 76.6207C33.8939 76.527 33.6217 76.4256 33.3573 76.3242C31.1955 75.5126 29.127 74.5762 27.4317 73.5149C27.4317 73.5149 30.5345 77.6819 37.5099 81.1544C37.5099 81.1544 25.8609 80.5926 19.2898 76.2695V76.2773ZM59.0661 77.8926C57.6586 80.3975 54.5636 81.3417 52.0285 80.0854C52.0985 80.0386 52.1607 79.9839 52.2307 79.9371C53.8404 78.7198 55.5434 76.8938 57.2542 74.6698C57.2076 74.4514 57.1454 74.2407 57.0598 74.0378C56.7099 73.1326 56.0567 72.3445 55.1468 71.8294C54.6491 71.5485 54.1203 71.3768 53.5838 71.3066C52.0207 71.0959 50.4265 71.7592 49.47 73.0936L49.7111 72.6098C50.6832 70.8696 52.4795 69.8864 54.3381 69.863C55.2479 69.8552 56.1733 70.0815 57.0209 70.5575C57.6975 70.9398 58.2574 71.4471 58.6851 72.0323C58.7706 72.1416 58.8484 72.2586 58.9184 72.3757C59.9371 73.991 60.0615 76.1057 59.0661 77.8926ZM69.191 85.9379C68.0401 87.3737 66.617 88.7315 64.8984 89.9722C67.5424 86.9835 69.7587 83.4252 70.653 79.4767C70.7696 78.9695 70.863 78.4545 70.9329 77.9316C71.2907 75.2083 71.0107 72.3288 69.8209 69.3402C68.9344 67.124 67.3636 64.9469 65.1162 63.2535C64.9451 63.1131 64.7662 62.9882 64.5874 62.8634C62.7833 61.607 60.5748 60.655 57.9619 60.1946C55.5823 59.7732 52.8683 59.7576 49.8122 60.3039C49.7656 60.1946 49.7111 60.0932 49.6567 59.9995C52.5573 58.6886 55.3257 58.1579 57.8919 58.2516C60.8003 58.353 63.4365 59.266 65.6605 60.7409C65.9249 60.9125 66.1738 61.092 66.4226 61.2793C68.9655 63.1989 70.9096 65.8755 72.0372 68.911C74.0046 74.2251 73.4525 80.6238 69.191 85.9379ZM84.0129 79.11C83.2741 82.005 81.7888 84.5099 79.8292 86.4841C81.3533 84.7128 82.5042 82.5668 83.1186 80.14C85.226 71.8919 80.3891 63.5032 72.286 61.1778C72.1461 61.1388 71.9983 61.0998 71.8583 61.0608C70.6841 60.7565 69.5099 60.6004 68.3434 60.5692C68.0246 60.3117 67.6902 60.0698 67.3558 59.8357C67.037 59.6172 66.7181 59.4143 66.3837 59.227C66.3915 59.2114 66.3993 59.1958 66.4071 59.188C66.8814 59.1256 67.3636 59.0787 67.8457 59.0631C69.2921 59.0085 70.7774 59.1412 72.2549 59.5001C72.3249 59.5235 72.3949 59.5391 72.4727 59.5547C81.0345 61.7553 86.2058 70.5107 84.0129 79.11Z" fill="black"/>
<path fill-rule="evenodd" clip-rule="evenodd" d="M51.5075 5.5716L53.3038 4.61178L55.1157 5.55599L54.758 3.54272L56.2122 2.11471L54.1903 1.82599L53.2805 0L52.394 1.83379L50.3799 2.13812L51.8418 3.55833L51.5075 5.5716Z" fill="black"/>
<path fill-rule="evenodd" clip-rule="evenodd" d="M62.55 13.0953L65.8705 11.324L69.2144 13.0641L68.5611 9.34193L71.244 6.69659L67.5113 6.16596L65.8316 2.78711L64.183 6.18157L60.4581 6.74341L63.1643 9.36534L62.55 13.0953Z" fill="black"/>
<path fill-rule="evenodd" clip-rule="evenodd" d="M75.5832 24.0335L80.3502 21.4974L85.1405 23.9944L84.2073 18.6569L88.0566 14.8567L82.7064 14.1076L80.2958 9.25391L77.9317 14.1232L72.5893 14.9347L76.4775 18.696L75.5832 24.0335Z" fill="black"/>
</svg>
