<svg width="162" height="60" viewBox="0 0 162 60" fill="none" xmlns="http://www.w3.org/2000/svg">
<path fill-rule="evenodd" clip-rule="evenodd" d="M44.1042 33.2891C42.2938 32.8209 40.3901 32.7788 38.5611 33.1721C38.5611 33.1721 38.5891 33.1486 38.6451 33.1018C38.6778 33.0737 38.7244 33.041 38.7804 33.0035C38.9204 32.9099 39.1257 32.7881 39.4103 32.6524C39.8536 32.451 40.4881 32.2216 41.3606 32.0437C41.7946 31.9501 42.2938 31.8798 42.8537 31.8283C44.6641 28.6352 46.3111 25.2922 47.8182 21.7994L48.1961 20.9192L47.6129 20.1607C40.6561 11.0449 30.2839 5.88997 19.3145 3.44127C15.4232 2.5751 11.4199 2.03667 7.43994 1.82598C5.80223 1.7417 4.05254 1.68552 2.41016 1.77448L1.0244 1.84471L0.879762 3.23526C0.301197 8.87709 0.170553 14.6126 0.595145 20.2965C2.02289 18.302 3.36199 17.2392 3.36199 17.2392C-2.15304 25.1939 -0.00674886 33.5841 3.55796 41.9134C3.74459 42.3488 3.80058 42.6485 3.88923 43.5614C3.84724 45.5279 5.38697 46.6141 7.22065 46.9559C7.33263 46.9793 11.2286 49.414 16.7016 50.5611C16.7016 50.5611 12.829 50.8326 8.71372 49.03C9.98283 51.3336 11.4199 53.5622 13.0203 55.627C13.9301 56.7975 15.0266 58.1272 16.1277 59.1291L17.0889 60L18.1481 59.2556C20.7096 57.4577 23.1218 55.5568 25.3895 53.5575C25.7954 54.0257 26.2433 54.4565 26.7239 54.8498C27.6897 55.6504 28.7815 56.2918 29.9387 56.7694C32.6402 57.8837 35.8596 58.1459 38.5891 56.9801C39.9935 57.2797 41.4446 57.3266 42.8677 57.1159C44.4914 56.9286 46.0498 56.3714 47.4356 55.5099C48.0421 55.1354 48.7 54.6578 49.1899 54.1381C50.9863 52.5275 52.2507 50.43 52.848 48.0936C54.5043 41.5903 50.585 34.9512 44.1042 33.2891ZM27.0458 35.073C26.3459 35.6208 25.6321 36.3418 25.0395 37.133C24.9975 37.1003 24.9602 37.0675 24.9229 37.0347C24.9229 37.0347 24.9415 37.0909 24.9929 37.1939C24.5216 37.826 24.125 38.5049 23.8731 39.1744C23.8404 39.2446 23.8031 39.3195 23.7704 39.3898C21.8994 37.6481 20.411 35.4662 20.1404 31.8096C21.0036 33.5373 22.6459 35.2415 23.8684 35.9391C21.9227 32.5353 21.2602 30.0164 21.0875 28.1857C22.9166 32.2778 26.052 32.8911 28.175 34.3098C27.7877 34.5345 27.4098 34.7874 27.0458 35.073ZM36.8628 29.492C33.8486 30.7842 28.5996 31.1213 24.5309 27.6379C24.5729 27.652 29.57 28.7569 33.0368 26.9918C33.0368 26.9918 25.5248 27.2072 21.3535 23.4803C22.156 22.8248 22.8232 21.9914 23.3271 20.9988C23.8311 20.0062 24.167 18.8498 24.307 17.5575C24.307 17.5622 24.3023 17.5622 24.2976 17.5669C24.2976 17.5669 24.2976 17.5669 24.2976 17.5716C24.293 17.581 24.2836 17.5903 24.2743 17.6044C22.5993 20.2544 18.526 24.4776 13.8135 24.927C15.6845 25.3484 17.4249 25.2875 18.9319 24.8006C19.5431 28.4151 18.7546 33.1861 14.7373 35.176C18.0361 31.7253 16.809 27.1791 16.809 27.1791C15.9271 32.6009 13.3236 34.0335 11.9611 34.0429C10.7574 34.0523 9.79153 32.6758 9.1943 30.9434C8.4151 28.682 8.27046 25.8073 9.05432 24.6227C9.87551 25.1049 11.1773 25.6574 12.815 25.8166C6.00753 23.1057 4.68709 14.6968 9.27362 9.85095C7.8412 12.5618 9.5909 16.8599 9.5909 16.8599C8.89568 10.1834 17.2522 4.37768 27.1578 10.3426C27.1578 10.3426 23.1312 11.8033 22.45 16.1014C25.6227 10.9138 32.2996 10.5579 35.9856 14.5376C35.9949 14.5423 35.9996 14.547 36.0042 14.5517C36.3402 14.9169 36.6481 15.3149 36.9328 15.7503C36.9328 15.7503 36.9281 15.7503 36.9234 15.7456C36.9141 15.7409 36.9048 15.7362 36.8908 15.7316C35.2111 15.1276 32.2249 14.458 29.0895 15.6894C32.5095 15.3242 37.5393 16.3121 38.7058 19.8377C38.7058 19.847 38.7104 19.8517 38.7104 19.8611C38.7104 19.8658 38.7151 19.8658 38.7104 19.8705C38.7198 19.8892 38.7291 19.9173 38.7338 19.936C38.7431 19.9594 38.7478 19.9828 38.7524 20.0062C39.8349 23.7097 40.1988 28.0687 36.8674 29.492H36.8628ZM3.56729 20.6102C3.73993 20.3387 3.93589 20.0858 4.14585 19.847C5.7649 21.261 6.69341 23.0261 6.95469 24.9598C7.16466 26.4908 6.95469 28.1248 6.34813 29.7589C6.34813 29.7589 6.15683 26.355 4.75241 24.1639C4.75241 24.1639 5.35431 30.2177 4.94371 33.35C4.53312 36.4822 3.50197 36.2107 2.77876 33.7292C2.55947 32.9754 2.30284 31.7347 2.13954 30.2739C1.8036 27.2259 1.87359 23.2275 3.56729 20.6102ZM11.5739 45.7667C8.57374 43.7955 6.46945 40.6726 7.23464 38.3785C7.34196 38.0601 7.50526 37.7557 7.72456 37.4748V37.5263C7.72456 37.5685 7.72922 37.6246 7.73389 37.7042C7.74322 37.7932 7.76188 37.9103 7.79921 38.0554C7.80854 38.0929 7.81787 38.1303 7.83187 38.1724C7.8552 38.2567 7.8832 38.3457 7.91586 38.444C7.96718 38.5891 8.0325 38.7483 8.11649 38.9263C8.14448 38.9824 8.17248 39.0433 8.20514 39.1088C8.2378 39.1791 8.27979 39.2493 8.32179 39.3289C8.38711 39.4506 8.46176 39.577 8.54575 39.7081C9.22229 40.785 10.4494 42.2318 12.6797 43.9828C12.6797 43.9828 7.6639 36.8053 10.6034 36.6695C10.7854 36.6882 10.9347 36.6976 11.084 36.7117C11.0933 36.7117 11.1026 36.7117 11.112 36.7117C11.7465 36.7772 12.3624 36.9551 15.1153 38.3831C17.4435 39.5958 20.3783 41.5997 22.5619 43.1916C22.4266 43.9875 22.3567 44.7834 22.3567 45.5794C22.3567 45.9212 22.3753 46.263 22.3986 46.6001C22.2587 46.5579 22.1187 46.5158 21.9787 46.469C21.4888 46.3191 20.9896 46.1506 20.4996 45.9727C20.3363 45.9165 20.173 45.8556 20.0144 45.7948C18.7173 45.3078 17.4762 44.746 16.459 44.1092C16.459 44.1092 18.3207 46.6094 22.506 48.6929C22.506 48.6929 15.5165 48.3558 11.5739 45.762V45.7667ZM35.4397 46.7358C34.5952 48.2388 32.7382 48.8053 31.2171 48.0515C31.2591 48.0234 31.2964 47.9906 31.3384 47.9625C32.3042 47.2321 33.3261 46.1366 34.3525 44.8022C34.3245 44.6711 34.2872 44.5447 34.2359 44.4229C34.0259 43.8798 33.634 43.4069 33.0881 43.0979C32.7895 42.9294 32.4722 42.8264 32.1503 42.7842C31.2124 42.6578 30.2559 43.0558 29.682 43.8564L29.8267 43.5661C30.4099 42.522 31.4877 41.9321 32.6028 41.9181C33.1488 41.9134 33.704 42.0492 34.2126 42.3348C34.6185 42.5642 34.9544 42.8685 35.2111 43.2197C35.2624 43.2852 35.309 43.3554 35.351 43.4257C35.9623 44.3948 36.0369 45.6637 35.4397 46.7358ZM41.5146 51.563C40.8241 52.4245 39.9702 53.2392 38.9391 53.9836C40.5255 52.1904 41.8552 50.0554 42.3918 47.6863C42.4618 47.382 42.5178 47.073 42.5598 46.7593C42.7744 45.1252 42.6064 43.3976 41.8925 41.6044C41.3606 40.2747 40.4181 38.9684 39.0697 37.9524C38.9671 37.8681 38.8597 37.7932 38.7524 37.7183C37.67 36.9645 36.3449 36.3933 34.7771 36.117C33.3494 35.8642 31.721 35.8549 29.8873 36.1826C29.8593 36.117 29.8267 36.0562 29.794 36C31.5344 35.2134 33.1954 34.895 34.7351 34.9512C36.4802 35.0121 38.0619 35.5599 39.3963 36.4448C39.555 36.5478 39.7043 36.6555 39.8536 36.7678C41.3793 37.9196 42.5458 39.5255 43.2223 41.3469C44.4028 44.5353 44.0715 48.3746 41.5146 51.563ZM50.4077 47.4662C49.9645 49.2033 49.0733 50.7062 47.8975 51.8907C48.812 50.8279 49.5025 49.5404 49.8711 48.0843C51.1356 43.1354 48.2334 38.1022 43.3716 36.707C43.2876 36.6836 43.199 36.6602 43.115 36.6367C42.4105 36.4541 41.7059 36.3605 41.006 36.3418C40.8147 36.1873 40.6141 36.0421 40.4135 35.9017C40.2222 35.7706 40.0309 35.6488 39.8302 35.5365C39.8349 35.5271 39.8396 35.5177 39.8442 35.5131C40.1289 35.4756 40.4181 35.4475 40.7074 35.4382C41.5753 35.4054 42.4664 35.485 43.353 35.7003C43.395 35.7144 43.4369 35.7238 43.4836 35.7331C48.6207 37.0534 51.7235 42.3067 50.4077 47.4662Z" fill="#F41E1E"/>
<path fill-rule="evenodd" clip-rule="evenodd" d="M30.9045 3.34296L31.9823 2.76707L33.0694 3.33359L32.8548 2.12563L33.7273 1.26883L32.5142 1.09559L31.9683 0L31.4364 1.10027L30.2279 1.28287L31.1051 2.135L30.9045 3.34296Z" fill="#F41E1E"/>
<path fill-rule="evenodd" clip-rule="evenodd" d="M37.53 7.85643L39.5223 6.79362L41.5286 7.83771L41.1367 5.60439L42.7464 4.01718L40.5068 3.69881L39.499 1.67149L38.5098 3.70817L36.2749 4.04527L37.8986 5.61843L37.53 7.85643Z" fill="#F41E1E"/>
<path fill-rule="evenodd" clip-rule="evenodd" d="M45.3499 14.4206L48.2101 12.8989L51.0843 14.3972L50.5244 11.1947L52.834 8.91454L49.6239 8.46507L48.1774 5.55286L46.759 8.47443L43.5536 8.96136L45.8865 11.2181L45.3499 14.4206Z" fill="#F41E1E"/>
<path d="M58.9275 35.8736L61.9464 33.041C62.9029 34.0242 64.5966 34.3472 66.043 34.3472C66.7055 34.3472 68.5439 34.3707 68.6932 33.3874C68.9638 31.318 59.9587 32.8724 60.9385 25.7792C61.4798 21.865 64.9138 20.437 68.3479 20.437C71.2174 20.437 73.2797 20.8818 75.0947 22.9746L72.0759 25.8072C71.1427 24.824 69.6217 24.501 68.2219 24.501C67.6807 24.501 66.113 24.5244 66.015 25.339C65.721 27.3336 74.6515 26.9169 73.8163 32.6992C73.2284 36.9832 69.2017 38.4112 65.5484 38.4112C62.7255 38.4112 60.7146 37.9196 58.9229 35.8736H58.9275Z" fill="white"/>
<path d="M74.4088 42.714L76.7884 25.7277H81.6969L81.5756 26.6641C82.4854 25.8494 83.6379 25.3578 85.1309 25.3578C88.761 25.3578 90.4033 28.4854 89.9134 31.8564C89.4468 35.2556 86.9459 38.4066 83.2879 38.4066C81.7902 38.4066 80.759 37.915 80.1012 37.1003L79.3173 42.714H74.4088ZM83.2413 29.1736C81.8182 29.1736 81.0063 30.6532 80.8384 31.8798C80.6657 33.1346 81.0343 34.5861 82.4807 34.5861C83.9271 34.5861 84.711 33.1346 84.8836 31.8798C85.0563 30.6251 84.711 29.1736 83.2413 29.1736Z" fill="white"/>
<path d="M99.7257 37.1003C98.8159 37.9149 97.6634 38.4065 96.1937 38.4065C92.5636 38.4065 90.9446 35.279 91.4112 31.8845C91.9011 28.4854 94.3553 25.3625 98.0087 25.3625C99.5064 25.3625 100.51 25.8541 101.2 26.6406L101.321 25.7277H106.23L104.513 38.0367H99.6044L99.7257 37.1003ZM98.0833 34.5907C99.5297 34.5907 100.29 33.1393 100.463 31.8845C100.636 30.6297 100.267 29.1783 98.8205 29.1783C97.3741 29.1783 96.5856 30.6297 96.4176 31.8845C96.245 33.1393 96.6369 34.5907 98.088 34.5907H98.0833Z" fill="white"/>
<path d="M116.63 29.7916C116.215 29.3984 115.697 29.1783 115.086 29.1783C113.639 29.1783 112.977 30.8264 112.729 32.0343L111.894 38.0414H106.986L108.703 25.7323H113.611L113.49 26.6687C114.372 25.8541 115.524 25.3625 117.022 25.3625C117.978 25.3625 118.958 25.5825 119.649 26.2005L116.63 29.7963V29.7916Z" fill="white"/>
<path d="M120.727 25.7276H123.424L124.109 20.8022H129.018L128.332 25.7276H131.029L130.516 29.4218H127.819L126.615 38.0367H121.707L122.91 29.4218H120.213L120.727 25.7276Z" fill="white"/>
<path d="M139.74 37.1003C138.83 37.9149 137.678 38.4065 136.208 38.4065C132.578 38.4065 130.959 35.279 131.425 31.8845C131.915 28.4854 134.37 25.3625 138.023 25.3625C139.521 25.3625 140.524 25.8541 141.21 26.6406L141.331 25.7277H146.24L144.523 38.0367H139.614L139.735 37.1003H139.74ZM138.098 34.5907C139.544 34.5907 140.305 33.1393 140.477 31.8845C140.65 30.6297 140.281 29.1783 138.835 29.1783C137.388 29.1783 136.605 30.6297 136.432 31.8845C136.259 33.1393 136.651 34.5907 138.102 34.5907H138.098Z" fill="white"/>
<path d="M147.005 38.0367L148.722 25.7277H153.63L153.509 26.6641C154.391 25.8494 155.543 25.3578 157.041 25.3578C160.55 25.3578 162.416 27.9189 161.921 31.3648L160.988 38.0367H156.08L156.938 31.9313C157.111 30.6017 156.644 29.1736 155.147 29.1736C153.649 29.1736 152.986 30.8217 152.744 32.1046L151.909 38.0367H147H147.005Z" fill="white"/>
<path d="M66.001 9.27974H63.696L62.3523 16.0359H61.1252L62.4689 9.27974H60.1407L60.3646 8.1701H66.2249L66.001 9.27974Z" fill="white"/>
<path d="M71.9826 11.7612C71.9826 12.2341 71.9033 12.501 71.194 16.0406H70.0089C70.6995 12.5244 70.7648 12.3324 70.7648 11.9813C70.7648 11.2836 70.4055 10.9653 69.659 10.9653C68.6932 10.9653 67.774 11.7378 67.5594 12.8287L66.9155 16.0406H65.7303L67.3774 7.80022H68.5625L67.9979 10.6188C68.5439 10.1225 69.2671 9.83221 70.0696 9.83221C71.278 9.83221 71.9872 10.586 71.9872 11.7659L71.9826 11.7612Z" fill="white"/>
<path d="M74.1382 13.4233C74.1382 13.4748 74.1382 13.5263 74.1382 13.5825C74.1382 14.5236 74.7121 15.0761 75.7059 15.0761C76.4571 15.0761 77.1617 14.7249 77.5863 14.1443H78.8927C78.1648 15.4319 76.989 16.1857 75.6266 16.1857C74.0682 16.1857 73.0044 15.062 73.0044 13.545C73.0044 11.5552 74.6141 9.82753 76.6484 9.82753C78.2488 9.82753 79.2566 10.9746 79.2566 12.4822C79.2566 12.8006 79.2006 13.1283 79.1213 13.428H74.1429L74.1382 13.4233ZM74.3808 12.426H78.1415C78.1088 11.4662 77.5303 10.9044 76.5784 10.9044C75.5753 10.9044 74.7681 11.5552 74.3808 12.426Z" fill="white"/>
<path d="M107.835 44.4417L107.149 47.8736H111.493L111.176 49.4702H106.832L105.871 54.2926H104.079L106.356 42.8076H112.925L112.608 44.4464H107.84L107.835 44.4417Z" fill="white"/>
<path d="M114.232 45.4296H115.963L114.195 54.2926H112.463L114.232 45.4296ZM114.787 42.199H116.625L116.252 44.025H114.414L114.787 42.199Z" fill="white"/>
<path d="M120.409 46.9981C119.626 50.9497 119.57 51.1697 119.57 51.4366C119.57 52.2372 120.083 52.682 120.993 52.682H122.042L121.725 54.302H120.526C118.823 54.302 117.787 53.3703 117.787 51.8439C117.787 51.3476 117.876 51.0386 118.678 46.9981H117.097L117.171 46.6703L120.857 43.3835H121.147L120.736 45.4296H123.396L123.078 46.9981H120.409Z" fill="white"/>
<path d="M132.592 48.0562C132.592 48.7725 132.475 49.1471 131.449 54.2879H129.718C130.707 49.3531 130.814 48.9598 130.814 48.4776C130.814 47.382 130.245 46.8295 129.121 46.8295C127.744 46.8295 126.503 47.9298 126.153 49.4514L125.192 54.2926H123.456L125.225 45.4296H126.438L126.517 46.6235C127.334 45.7386 128.486 45.2189 129.788 45.2189C131.561 45.2189 132.597 46.3238 132.597 48.0562H132.592Z" fill="white"/>
<path d="M135.751 50.4721C135.751 50.547 135.746 50.6266 135.746 50.7015C135.746 52.078 136.586 52.8787 138.032 52.8787C139.129 52.8787 140.16 52.3636 140.776 51.5162H142.684C141.62 53.3937 139.903 54.4986 137.916 54.4986C135.643 54.4986 134.09 52.8599 134.09 50.6453C134.09 47.7378 136.437 45.2189 139.413 45.2189C141.746 45.2189 143.221 46.8904 143.221 49.0909C143.221 49.5591 143.137 50.0367 143.02 50.4721H135.751ZM136.105 49.016H141.597C141.55 47.6161 140.706 46.7967 139.315 46.7967C137.85 46.7967 136.67 47.7472 136.105 49.016Z" fill="white"/>
<path d="M144.014 52.0312C144.014 51.8486 144.033 51.6707 144.061 51.4881H145.75C145.736 51.5817 145.722 51.6754 145.722 51.755C145.722 52.5884 146.561 52.9629 147.415 52.9629C148.521 52.9629 149.468 52.4292 149.468 51.5443C149.468 50.8279 148.591 50.6313 147.611 50.458C146.342 50.2286 144.896 49.9243 144.896 48.3745C144.896 46.3753 146.617 45.2095 148.782 45.2095C150.565 45.2095 151.773 46.1459 151.773 47.5318C151.773 47.691 151.755 47.8548 151.722 48.0328H150.089C150.103 47.9391 150.117 47.8502 150.117 47.7752C150.117 47.0402 149.408 46.6937 148.544 46.6937C147.415 46.6937 146.608 47.2228 146.608 47.9953C146.608 48.6742 147.448 48.8427 148.423 49.0066C149.706 49.222 151.223 49.517 151.223 51.1276C151.223 53.2907 149.431 54.4986 147.145 54.4986C145.292 54.4986 144.019 53.5529 144.019 52.0312H144.014Z" fill="white"/>
<path d="M152.436 52.0312C152.436 51.8486 152.454 51.6707 152.482 51.4881H154.171C154.157 51.5817 154.143 51.6754 154.143 51.755C154.143 52.5884 154.983 52.9629 155.837 52.9629C156.943 52.9629 157.89 52.4292 157.89 51.5443C157.89 50.8279 157.013 50.6313 156.033 50.458C154.764 50.2286 153.318 49.9243 153.318 48.3745C153.318 46.3753 155.039 45.2095 157.204 45.2095C158.987 45.2095 160.195 46.1459 160.195 47.5318C160.195 47.691 160.176 47.8548 160.144 48.0328H158.511C158.525 47.9391 158.539 47.8502 158.539 47.7752C158.539 47.0402 157.829 46.6937 156.966 46.6937C155.837 46.6937 155.03 47.2228 155.03 47.9953C155.03 48.6742 155.87 48.8427 156.845 49.0066C158.128 49.222 159.644 49.517 159.644 51.1276C159.644 53.2907 157.853 54.4986 155.567 54.4986C153.714 54.4986 152.44 53.5529 152.44 52.0312H152.436Z" fill="white"/>
</svg>
