<svg width="28" height="33" viewBox="0 0 28 33" fill="none" xmlns="http://www.w3.org/2000/svg">
<path d="M9.8125 0V2.75285H12.6129V4.12924C13.593 3.99162 14.4331 3.99162 15.4132 4.12924V2.75285H18.2136V0H9.8125Z" fill="#F41E1E"/>
<path d="M23.534 9.08409L24.5141 8.12062L25.6343 9.22177L27.5945 7.29477L23.394 3.16553L21.4338 5.09253L22.5539 6.19362L21.2938 7.43239C14.5729 3.44077 5.89188 5.50539 1.97143 12.1122C-1.94902 18.719 0.151171 26.9774 6.73198 30.9691C13.3128 34.9607 21.9938 32.8961 25.9143 26.2893C29.4147 20.646 28.4346 13.4886 23.534 9.08409ZM14.0128 28.7668C8.55218 28.7668 4.21168 24.5 4.21168 19.132C4.21168 13.7639 8.55218 9.49701 14.0128 9.49701V19.1319H23.814C23.8141 24.4999 19.4735 28.7668 14.0128 28.7668Z" fill="white"/>
</svg>
