<svg width="17" height="20" viewBox="0 0 17 20" fill="none" xmlns="http://www.w3.org/2000/svg">
<path d="M5.95749 0V1.66838H7.65771V2.50255C8.25277 2.41914 8.76283 2.41914 9.35793 2.50255V1.66838H11.0581V0H5.95749Z" fill="#F41E1E"/>
<path d="M14.2885 5.50543L14.8836 4.92152L15.5637 5.58888L16.7538 4.42101L14.2035 1.91846L13.0134 3.08633L13.6934 3.75365L12.9284 4.50441C8.84786 2.08527 3.57721 3.33654 1.19694 7.34062C-1.18333 11.3447 0.0917822 16.3498 4.08728 18.7689C8.08277 21.1881 13.3534 19.9368 15.7337 15.9327C17.8589 12.5126 17.2639 8.17483 14.2885 5.50543ZM8.50779 17.4343C5.1924 17.4343 2.55709 14.8483 2.55709 11.595C2.55709 8.34168 5.1924 5.75569 8.50779 5.75569V11.595H14.4585C14.4585 14.8483 11.8232 17.4343 8.50779 17.4343Z" fill="black"/>
</svg>
