<svg width="200" height="200" viewBox="0 0 200 200" fill="none" xmlns="http://www.w3.org/2000/svg">
<g clip-path="url(#clip0_671_897)">
<path d="M3.01228 34.1921C17.2088 35.6957 28.274 47.7091 28.274 62.3076V81.011C29.8178 81.3149 31.3291 81.7727 32.7757 82.3724C35.6444 83.5596 38.2862 85.31 40.5228 87.5507C45.0001 92.028 47.5163 98.0977 47.5163 104.431V121.915L55.0852 118.26C68.4402 111.817 83.0674 108.47 97.8972 108.47L120.065 107.868V133.357V133.361L118.525 134.658C118.525 134.658 67.4231 179.07 43.1038 178.057C22.3607 177.19 5.64923 162.025 1.17841 157.579C0.422333 156.827 0.000114441 155.806 0.000114441 154.739V36.9158C0.000114441 35.2958 1.40126 34.0215 3.01228 34.1921Z" fill="#FED2A4"/>
<path d="M40.9975 124.245C37.4946 125.936 33.4286 123.384 33.4286 119.494V110.416C33.4286 104.083 30.9124 98.013 26.4351 93.5357C24.1984 91.295 21.5566 89.5446 18.6879 88.3574C18.3573 88.2205 18.0234 88.0908 17.6867 87.9688C15.5915 87.2095 14.1863 85.233 14.1863 83.0045V68.293C14.1863 57.8076 8.47721 48.656 -9.91821e-05 43.7743V36.9158C-9.91821e-05 35.2958 1.40145 34.0215 3.01207 34.1921C17.2086 35.6957 28.2738 47.7091 28.2738 62.3076V81.011C29.8176 81.3149 31.3289 81.7727 32.7754 82.3724C35.6442 83.5596 38.286 85.31 40.5226 87.5507C44.9999 92.028 47.5161 98.0977 47.5161 104.431V121.396C45.3143 122.268 43.1381 123.212 40.9975 124.245Z" fill="#FFBD86"/>
<path d="M85.4401 113.874C84.8182 112.441 84.2481 110.981 83.7254 109.499C88.4053 108.819 93.1403 108.47 97.8972 108.47L120.065 107.867V133.357V133.361L118.525 134.657C118.525 134.657 114.876 137.829 109.066 142.456C98.7311 135.383 90.4851 125.487 85.4401 113.874Z" fill="#FFBD86"/>
<path d="M120.065 133.357C127.913 137.911 137.03 140.52 146.754 140.52C176.159 140.52 200 116.683 200 87.2787C200 57.8744 176.159 34.0332 146.754 34.0332C117.35 34.0332 93.513 57.8744 93.513 87.2787C93.513 94.8071 95.077 101.975 97.8971 108.47C102.447 118.944 110.263 127.668 120.065 133.357Z" fill="#ACACAC"/>
<path d="M172.321 87.2787C172.321 62.6621 155.61 41.9477 132.915 35.8541C137.328 34.6689 141.967 34.0332 146.754 34.0332C176.159 34.0332 200 57.8744 200 87.2787C200 116.683 176.159 140.52 146.754 140.52C141.968 140.52 137.329 139.885 132.915 138.7C155.61 132.607 172.321 111.895 172.321 87.2787Z" fill="#9E9797"/>
<path d="M77.2471 90.3173C78.9258 90.3173 80.286 88.9571 80.286 87.2784C80.286 68.1362 88.5478 49.9137 102.952 37.2829C104.214 36.1763 104.34 34.2561 103.234 32.9944C102.127 31.7318 100.206 31.6058 98.9453 32.7132C83.224 46.498 74.2078 66.3858 74.2078 87.2784C74.2082 88.9567 75.5684 90.3173 77.2471 90.3173Z" fill="#ACACAC"/>
<path d="M108.475 32.2933C109.05 32.2933 109.632 32.1304 110.148 31.7892C112.431 30.2799 114.828 28.9003 117.273 27.6883C118.777 26.9432 119.392 25.1199 118.647 23.6158C117.902 22.1126 116.077 21.4975 114.575 22.2426C111.905 23.5656 109.288 25.0716 106.797 26.7187C105.396 27.6442 105.012 29.5299 105.937 30.9298C106.522 31.8139 107.489 32.2933 108.475 32.2933Z" fill="#ACACAC"/>
<path d="M167.145 156.787C167.441 156.787 167.74 156.744 168.037 156.652C178.029 153.59 187.076 148.5 194.928 141.523C196.183 140.408 196.296 138.487 195.181 137.233C194.066 135.978 192.146 135.864 190.89 136.98C183.696 143.373 175.408 148.037 166.256 150.841C164.651 151.333 163.749 153.032 164.241 154.637C164.642 155.945 165.845 156.787 167.145 156.787Z" fill="#ACACAC"/>
<path d="M146.755 159.825C150.224 159.825 153.713 159.577 157.125 159.09C158.787 158.852 159.94 157.312 159.703 155.651C159.465 153.989 157.922 152.838 156.264 153.073C153.136 153.521 149.938 153.748 146.755 153.748C145.076 153.748 143.716 155.108 143.716 156.786C143.716 158.465 145.076 159.825 146.755 159.825Z" fill="#ACACAC"/>
<path d="M146.755 125.56C125.613 125.56 108.473 108.421 108.473 87.2783C108.473 66.1358 125.613 48.9963 146.755 48.9963C167.898 48.9963 185.037 66.1358 185.037 87.2783C185.037 108.421 167.898 125.56 146.755 125.56Z" fill="#838383"/>
<path d="M146.755 101.705C138.787 101.705 132.329 95.2457 132.329 87.2783C132.329 79.3109 138.787 72.8521 146.755 72.8521C154.722 72.8521 161.181 79.3109 161.181 87.2783C161.181 95.2457 154.722 101.705 146.755 101.705Z" fill="#9C9C9C"/>
</g>
<defs>
<clipPath id="clip0_671_897">
<rect width="200" height="200" fill="white" transform="matrix(-1 0 0 1 200 0)"/>
</clipPath>
</defs>
</svg>
