<svg width="200" height="200" viewBox="0 0 200 200" fill="none" xmlns="http://www.w3.org/2000/svg">
<g clip-path="url(#clip0_671_125)">
<path d="M153.313 22.6563C138.625 22.6777 125.537 29.4953 117.008 40.1291C115.628 41.8473 113.008 41.8473 111.63 40.1291C103.101 29.4953 90.0117 22.6777 75.3236 22.6563C49.6889 22.6212 28.6836 43.5425 28.6363 69.1773C28.5478 117.522 93.6815 164.931 110.429 176.323C112.778 177.919 115.86 177.919 118.207 176.323C134.956 164.931 200.089 117.522 200 69.1788C199.953 43.544 178.948 22.6212 153.313 22.6563Z" fill="#FF592A"/>
<path d="M78.688 22.7859C79.8675 24.118 81.8267 24.3026 83.2214 23.3367C81.7336 23.0804 80.2215 22.8973 78.688 22.7859Z" fill="#F63511"/>
<path d="M156.741 22.7783C163.103 30.7327 166.926 40.7928 166.946 51.7105C167.035 99.0265 104.652 145.441 86.2944 158.073C96.5712 166.632 105.553 173.006 110.429 176.323C112.778 177.919 115.858 177.919 118.207 176.323C134.956 164.931 200.088 117.522 200 69.1788C199.954 44.696 180.794 24.5148 156.741 22.7783Z" fill="#F63511"/>
<path d="M85.0447 102.324C83.7187 102.324 82.5469 101.456 82.1608 100.186L72.9994 70.0929H45.5611C43.8948 70.0929 42.5444 68.7425 42.5444 67.0778C42.5444 65.413 43.8948 64.0626 45.5611 64.0626H75.2348C76.5608 64.0626 77.7327 64.9293 78.1188 66.1988L85.0462 88.9527L95.1613 55.7222C95.5473 54.4526 96.7192 53.5859 98.0452 53.5859C99.3727 53.5859 100.545 54.4526 100.931 55.7222L105.308 70.1051H131.828C133.494 70.1051 134.845 71.4555 134.845 73.1202C134.845 74.7865 133.494 76.1369 131.828 76.1369H103.074C101.747 76.1369 100.575 75.2687 100.189 73.9991L98.0452 66.9557L87.9301 100.186C87.5441 101.456 86.3722 102.324 85.0447 102.324Z" fill="#FFC5B2"/>
<path d="M23.2559 118.819H108.403V137.482H23.2559V118.819Z" fill="#848489"/>
<path d="M91.0628 118.819V123.483C91.0628 126.942 88.2583 129.747 84.7991 129.747H23.2559V137.482H108.403V118.819H91.0628Z" fill="#545353"/>
<path d="M113.141 156.738H106.343C104.186 156.738 102.437 154.988 102.437 152.832V103.766C102.437 101.608 104.186 99.8596 106.343 99.8596H113.141C115.299 99.8596 117.047 101.608 117.047 103.766V152.832C117.047 154.988 115.299 156.738 113.141 156.738Z" fill="#848489"/>
<path d="M127.752 149.527H120.953C118.796 149.527 117.047 147.777 117.047 145.621V110.977C117.047 108.819 118.796 107.071 120.953 107.071H127.752C129.91 107.071 131.659 108.819 131.659 110.977V145.621C131.659 147.777 129.91 149.527 127.752 149.527Z" fill="#848489"/>
<path d="M18.5166 99.8596H25.3159C27.4735 99.8596 29.2222 101.608 29.2222 103.766V152.832C29.2222 154.988 27.4735 156.738 25.3159 156.738H18.5166C16.3605 156.738 14.6104 154.988 14.6104 152.832V103.766C14.6104 101.608 16.3605 99.8596 18.5166 99.8596Z" fill="#848489"/>
<path d="M3.90625 107.071H10.704C12.8616 107.071 14.6103 108.819 14.6103 110.977V145.621C14.6103 147.777 12.8616 149.527 10.704 149.527H3.90625C1.74866 149.527 0 147.777 0 145.621V110.977C0 108.819 1.74866 107.071 3.90625 107.071Z" fill="#848489"/>
<path d="M112.904 99.8596H106.688C108.977 99.8596 110.831 101.715 110.831 104.002V152.595C110.831 154.883 108.977 156.738 106.688 156.738H112.904C115.193 156.738 117.047 154.883 117.047 152.595V104.002C117.047 101.715 115.193 99.8596 112.904 99.8596Z" fill="#545353"/>
<path d="M127.516 107.071H121.3C123.587 107.071 125.443 108.926 125.443 111.214V145.384C125.443 147.671 123.587 149.527 121.3 149.527H127.516C129.804 149.527 131.659 147.671 131.659 145.384V111.214C131.659 108.926 129.804 107.071 127.516 107.071Z" fill="#545353"/>
<path d="M25.0792 99.8596H18.8628C21.1501 99.8596 23.0056 101.715 23.0056 104.002V152.595C23.0056 154.883 21.1501 156.738 18.8628 156.738H25.0792C27.3665 156.738 29.222 154.883 29.222 152.595V104.002C29.222 101.715 27.3665 99.8596 25.0792 99.8596Z" fill="#545353"/>
<path d="M10.4674 107.071H4.25098C6.53979 107.071 8.39374 108.926 8.39374 111.214V145.384C8.39374 147.671 6.53979 149.527 4.25098 149.527H10.4674C12.7562 149.527 14.6102 147.671 14.6102 145.384V111.214C14.6102 108.926 12.7562 107.071 10.4674 107.071Z" fill="#545353"/>
</g>
<defs>
<clipPath id="clip0_671_125">
<rect width="200" height="200" fill="white"/>
</clipPath>
</defs>
</svg>
