<svg width="180" height="180" viewBox="0 0 180 180" fill="none" xmlns="http://www.w3.org/2000/svg">
<g clip-path="url(#clip0_671_200)">
<path d="M147.324 91.5203C144.418 86.9789 144.256 81.2055 146.953 76.535L157.907 57.563L153.04 45.6387L138.814 46.5396L131.56 59.1038C128.209 64.9087 121.118 67.3051 114.877 64.8606C107.22 61.8627 98.8867 60.2162 90.1663 60.2162C86.0917 60.2162 82.0968 60.5773 78.2173 61.2681C73.8035 62.0536 69.534 63.2662 65.458 64.8606C59.2151 67.3051 52.1275 64.9087 48.7767 59.1038L41.5229 46.5396L28.8969 48.8714L22.4301 57.563L33.3835 76.535C36.0765 81.2055 35.9185 86.9789 33.0085 91.5203C26.2588 102.063 22.3408 114.597 22.3408 128.046C22.3408 165.504 52.7084 180 90.1663 180C127.628 180 157.996 165.504 157.996 128.046C157.996 114.597 154.078 102.063 147.324 91.5203Z" fill="#5C5E71"/>
<path d="M90.1663 180C52.7084 180 22.3408 165.504 22.3408 128.046C22.3408 114.597 26.2588 102.063 33.0085 91.5203C35.9185 86.9789 36.0765 81.2055 33.3835 76.535L22.4301 57.563L29.0136 42.0461L41.5229 46.5396L48.7767 59.1038C52.1275 64.9087 59.2151 67.3051 65.458 64.8606C69.534 63.2662 73.7994 62.0536 78.2132 61.2681V61.275C57.0837 67.8777 9.5239 157.905 90.1663 180Z" fill="#3B3D4D"/>
<path d="M157.908 19.189C150.97 7.1727 138.547 0 124.676 0H55.6635C41.7919 0 29.3637 7.1727 22.4299 19.1849C15.4934 31.2012 15.4934 45.5466 22.4299 57.5615L41.5241 46.5381C38.5729 41.4267 38.5729 35.3238 41.5241 30.2124C44.474 25.0969 49.7625 22.0468 55.6635 22.0468H124.41C130.323 22.0468 135.879 25.1079 138.826 30.2344C141.766 35.3416 141.762 41.4349 138.815 46.5381L157.908 57.5615C164.846 45.5466 164.846 31.2012 157.908 19.189Z" fill="#F64F44"/>
<path d="M74.5615 0.00134277H55.6622C41.7906 0.00134277 29.3637 7.17404 22.43 19.1862C15.4921 31.2025 15.4921 45.5479 22.43 57.5642L41.5228 46.5408C38.5716 41.4294 38.5716 35.3251 41.5228 30.2137C44.474 25.0996 49.7612 22.0495 55.6622 22.0495H75.2811C58.7604 19.0722 55.6622 0.00134277 74.5615 0.00134277Z" fill="#D22E29"/>
<path d="M120.414 122.708C120.414 139.412 106.874 152.954 90.1691 152.954C73.4644 152.954 59.9224 139.412 59.9224 122.708C59.9224 106.003 73.4644 92.4609 90.1691 92.4609C106.874 92.4609 120.414 106.003 120.414 122.708Z" fill="#7D808E"/>
<path d="M83.2667 122.304L89.0578 115.059C89.3091 114.736 89.338 114.406 89.338 114.187C89.338 113.037 87.8864 111.912 86.8029 111.912C86.2714 111.912 85.8759 112.121 85.5559 112.57L78.6854 121.921V113.308C78.6854 112.345 77.5757 111.912 76.4757 111.912C75.4568 111.912 74.2661 112.278 74.2661 113.308V134.482C74.2661 135.463 75.4114 135.911 76.4757 135.911C77.573 135.911 78.6854 135.42 78.6854 134.482V128.13L80.3457 126.039L86.3991 135.214C86.737 135.768 87.2849 136.073 87.9427 136.073C89.2473 136.073 90.5753 134.958 90.5753 133.863C90.5753 133.558 90.4929 133.289 90.3322 133.064L83.2667 122.304Z" fill="#3B3D4D"/>
<path d="M107.977 123.216H102.438C101.532 123.216 101.044 124.12 101.044 124.97C101.044 125.84 101.522 126.723 102.438 126.723H104.986V128.553C104.986 130.943 103.833 132.207 101.657 132.207C99.469 132.207 98.3607 130.978 98.3607 128.553V119.464C98.3607 117.039 99.48 115.81 101.69 115.81C104.433 115.81 104.892 117.488 104.986 118.946C105.016 119.877 105.779 120.37 107.195 120.37C108.559 120.37 109.405 120.018 109.405 118.258C109.405 114.463 106.238 111.912 101.526 111.912C94.9275 111.912 93.9429 116.643 93.9429 119.464V128.553C93.9429 133.422 96.6826 136.104 101.657 136.104C106.653 136.104 109.405 133.422 109.405 128.553V124.676C109.403 123.951 108.913 123.216 107.977 123.216Z" fill="#3B3D4D"/>
<path d="M90.1689 155.711C71.9715 155.711 57.166 140.905 57.166 122.708C57.166 104.51 71.9715 89.7048 90.1689 89.7048C108.365 89.7048 123.171 104.51 123.171 122.708C123.171 140.905 108.366 155.711 90.1689 155.711ZM90.1689 95.2172C75.0106 95.2172 62.6784 107.549 62.6784 122.708C62.6784 137.866 75.0106 150.198 90.1689 150.198C105.326 150.198 117.658 137.866 117.658 122.708C117.659 107.549 105.327 95.2172 90.1689 95.2172Z" fill="#3B3D4D"/>
</g>
<defs>
<clipPath id="clip0_671_200">
<rect width="180" height="180" fill="white"/>
</clipPath>
</defs>
</svg>
