<svg width="200" height="200" viewBox="0 0 200 200" fill="none" xmlns="http://www.w3.org/2000/svg">
<path d="M150.457 32.4512L150.066 32.8418V104.33H165.769V32.4512H150.457Z" fill="#E2DEE2"/>
<path d="M157.892 32.8418V93.2203C157.892 94.4891 156.863 95.5172 155.595 95.5172H150.066V104.33H165.769V32.8418H157.892Z" fill="#CBC4CC"/>
<path d="M171.892 143.325C172.06 143.423 172.225 143.524 172.389 143.626V108.068C172.389 105.785 170.538 103.934 168.254 103.934H147.581C145.298 103.934 143.447 105.785 143.447 108.068V126.708L171.892 143.325Z" fill="#60B7FF"/>
<path d="M168.254 103.934H160.664V136.765L171.892 143.324C172.059 143.423 172.224 143.524 172.389 143.626V108.068C172.389 105.785 170.537 103.934 168.254 103.934Z" fill="#26A6FE"/>
<path d="M42.1226 50.5437H57.8257V80.9664H42.1226V50.5437Z" fill="#E2DEE2"/>
<path d="M50.039 50.5437V69.8253C50.039 71.0941 49.0104 72.1222 47.7421 72.1222H42.1226V80.9664H57.8257V50.5437H50.039Z" fill="#CBC4CC"/>
<path d="M50.5372 97.2034H64.445V84.7046C64.445 82.421 62.5938 80.5698 60.3103 80.5698H39.6372C37.3536 80.5698 35.5024 82.421 35.5024 84.7046V99.7675C40.2106 98.1093 45.2716 97.2034 50.5372 97.2034Z" fill="#60B7FF"/>
<path d="M60.3101 80.5698H52.8101V97.2034H64.4444V84.7046C64.4448 82.421 62.5937 80.5698 60.3101 80.5698Z" fill="#26A6FE"/>
<path d="M172.092 142.982L103.532 102.932C96.6649 98.9207 88.8544 96.8066 80.9013 96.8066H50.5372C25.7981 96.8066 5.29189 116.595 5.10868 141.333C4.92392 166.268 25.0817 186.539 49.9739 186.539L50.879 186.93H159.473L160.302 186.539C173.211 186.539 183.676 176.074 183.676 163.165C183.676 154.857 179.266 147.173 172.092 142.982Z" fill="#E2DEE2"/>
<path d="M172.092 142.982L166.64 139.798C168.417 143.137 169.391 146.912 169.391 150.825C169.391 163.791 158.88 174.302 145.914 174.302H19.1851C27.2194 181.888 38.0522 186.54 49.9741 186.54H160.302C173.211 186.54 183.676 176.075 183.676 163.165C183.676 154.857 179.266 147.173 172.092 142.982Z" fill="#CBC4CC"/>
<path d="M49.9738 173.063C67.31 173.063 81.3637 159.009 81.3637 141.673C81.3637 124.337 67.31 110.283 49.9738 110.283C32.6377 110.283 18.584 124.337 18.584 141.673C18.584 159.009 32.6377 173.063 49.9738 173.063Z" fill="#B5ADB6"/>
<path d="M57.4124 111.178C64.7483 116.924 69.4683 125.856 69.4683 135.897C69.4683 153.233 55.4147 167.287 38.0784 167.287C35.5147 167.287 33.0253 166.973 30.6401 166.392C35.9702 170.567 42.6788 173.063 49.9741 173.063C67.3101 173.063 81.364 159.01 81.364 141.673C81.364 126.901 71.1569 114.519 57.4124 111.178Z" fill="#A79BA7"/>
<path d="M49.9738 154.126C56.8511 154.126 62.4262 148.551 62.4262 141.673C62.4262 134.796 56.8511 129.221 49.9738 129.221C43.0966 129.221 37.5215 134.796 37.5215 141.673C37.5215 148.551 43.0966 154.126 49.9738 154.126Z" fill="#60B7FF"/>
<path d="M49.9739 129.221C49.7763 129.221 49.5798 129.227 49.3845 129.236C51.9728 131.517 53.6075 134.856 53.6075 138.577C53.6075 145.256 48.3481 150.706 41.7446 151.015C43.9392 152.949 46.8185 154.126 49.9739 154.126C56.8513 154.126 62.4263 148.551 62.4263 141.673C62.4263 134.796 56.8509 129.221 49.9739 129.221Z" fill="#26A6FE"/>
<path d="M71.898 50.9401H32.593C27.8203 50.9401 23.9512 47.071 23.9512 42.2983V41.5667C23.9512 32.3268 32.4246 25.41 41.477 27.2604L73.6281 33.8315C77.6508 34.6538 80.5395 38.1925 80.5395 42.2983C80.5398 47.0714 76.6707 50.9401 71.898 50.9401Z" fill="#60B7FF"/>
<path d="M73.6285 33.8314L68.6098 32.8057C68.0926 37.0842 64.4516 40.4006 60.0332 40.4006H24.0023C23.9723 40.7854 23.9512 41.1732 23.9512 41.5666V42.2982C23.9512 47.0709 27.8203 50.94 32.593 50.94H71.8981C76.6707 50.94 80.5398 47.0709 80.5398 42.2982C80.5398 38.1928 77.6508 34.6537 73.6285 33.8314Z" fill="#26A6FE"/>
<path d="M156.307 173.528C162.75 173.528 167.973 168.306 167.973 161.863C167.973 155.421 162.75 150.198 156.307 150.198C149.865 150.198 144.642 155.421 144.642 161.863C144.642 168.306 149.865 173.528 156.307 173.528Z" fill="#B5ADB6"/>
<path d="M157.603 150.271C158.543 151.954 159.082 153.891 159.082 155.954C159.082 162.397 153.859 167.62 147.416 167.62C146.978 167.62 146.546 167.593 146.121 167.546C148.116 171.114 151.929 173.529 156.308 173.529C162.75 173.529 167.973 168.306 167.973 161.863C167.973 155.859 163.435 150.916 157.603 150.271Z" fill="#A79BA7"/>
<path d="M5.10889 196.035V190.505C5.10889 188.315 6.88428 186.54 9.07412 186.54H179.711C181.901 186.54 183.676 188.315 183.676 190.505V196.035C183.676 198.225 181.901 200 179.711 200H9.07412C6.88389 200 5.10889 198.225 5.10889 196.035Z" fill="#B5ADB6"/>
<path d="M179.711 186.54H168.202V190.263C168.202 192.453 166.426 194.229 164.237 194.229H5.10889V196.035C5.10889 198.224 6.88428 200 9.07412 200H179.711C181.901 200 183.676 198.224 183.676 196.035V190.505C183.676 188.315 181.901 186.54 179.711 186.54Z" fill="#A79BA7"/>
<path d="M150.457 28.1684C150.457 27.7648 150.495 27.3711 150.551 26.9824H135.721C134.057 26.9824 132.703 25.6285 132.703 23.9641V2.92969C132.703 1.31172 131.391 0 129.773 0C128.155 0 126.843 1.31172 126.843 2.92969V23.9641C126.843 28.859 130.826 32.8418 135.721 32.8418H150.066L150.457 32.4512V28.1684Z" fill="#B5ADB6"/>
<path d="M90.4495 138.744H49.9741C48.3562 138.744 47.0444 140.055 47.0444 141.673C47.0444 143.291 48.3562 144.603 49.9741 144.603H90.4495V138.744Z" fill="#CBC4CC"/>
<path d="M115.8 147.282H92.041C90.9461 147.282 90.0586 146.394 90.0586 145.299V138.048C90.0586 136.953 90.9461 136.065 92.041 136.065H115.8C116.895 136.065 117.782 136.953 117.782 138.048V145.299C117.783 146.394 116.895 147.282 115.8 147.282Z" fill="#60B7FF"/>
<path d="M115.8 136.065H108.723V139.531C108.723 140.626 107.836 141.513 106.741 141.513H90.0586V145.299C90.0586 146.394 90.9461 147.282 92.041 147.282H115.8C116.895 147.282 117.782 146.394 117.782 145.299V138.048C117.783 136.953 116.895 136.065 115.8 136.065Z" fill="#26A6FE"/>
<path d="M158.853 19.3816C154 19.3816 150.066 23.3156 150.066 28.1683V32.8417H192.825C193.967 32.8417 194.892 31.9164 194.892 30.7746V21.4488C194.892 20.307 193.967 19.3816 192.825 19.3816H158.853Z" fill="#60B7FF"/>
<path d="M192.826 19.3816H183.27V24.9843C183.27 26.1261 182.344 27.0515 181.202 27.0515H150.139C150.093 27.4175 150.066 27.7898 150.066 28.1683V32.8417H192.826C193.968 32.8417 194.893 31.9164 194.893 30.7746V21.4488C194.893 20.3074 193.968 19.3816 192.826 19.3816Z" fill="#26A6FE"/>
</svg>
